<svg width="72" height="72" viewBox="0 0 72 72" fill="none" xmlns="http://www.w3.org/2000/svg">
<path d="M71.9999 6.86646e-05H0V71.9999H71.9999V6.86646e-05Z" fill="black"/>
<path d="M35.1001 58.5H8.1001V63H35.1001V58.5Z" fill="white"/>
<path d="M6.70361 18.5586L8.71084 16.6639C8.90297 16.964 9.16292 17.2148 9.46973 17.3961C9.77654 17.5774 10.1216 17.6841 10.4772 17.7076C11.248 17.7076 11.7459 17.1777 11.7459 16.134L11.7459 9.0206H14.8451L14.8451 16.15C14.8889 16.7252 14.8131 17.3033 14.6224 17.8477C14.4317 18.3922 14.1302 18.8912 13.737 19.3133C13.325 19.6992 12.84 19.9989 12.3106 20.1947C11.7811 20.3904 11.2178 20.4784 10.6539 20.4534C9.88968 20.4918 9.128 20.3386 8.43811 20.0077C7.74821 19.6768 7.15198 19.1786 6.70361 18.5586Z" fill="white"/>
<path d="M16.2329 9.02061L25.2735 9.02067V11.6541H19.3161V13.3722H24.7115V15.8289H19.3161V17.6113H25.3538V20.2607H16.2329L16.2329 9.02061Z" fill="white"/>
<path d="M29.6779 11.7505H26.3218V9.02069L36.1654 9.02074V11.7505H32.7932L32.7931 20.2608H29.6779L29.6779 11.7505Z" fill="white"/>
<path d="M7.95762 24.6947H13.2571C13.8087 24.651 14.3635 24.7164 14.8898 24.8872C15.4161 25.0581 15.9035 25.331 16.3243 25.6903C16.5609 25.9317 16.7468 26.218 16.8709 26.5324C16.995 26.8468 17.0548 27.1829 17.0469 27.5209V27.553C17.0578 28.0998 16.8961 28.6362 16.5847 29.0859C16.2734 29.5355 15.8282 29.8756 15.3125 30.0579C16.6775 30.5075 17.5446 31.2783 17.5446 32.8037V32.8358C17.5446 34.7627 15.9708 35.9348 13.2892 35.9348H7.95752L7.95762 24.6947ZM13.9798 28.1632C13.9798 27.5369 13.482 27.1997 12.5667 27.1997H10.9925V29.1747H12.4863C13.4338 29.1747 13.9798 28.8536 13.9798 28.1952L13.9798 28.1632ZM12.9039 31.3585H10.9925V33.4299H12.936C13.8994 33.4299 14.4294 33.0606 14.4294 32.4022V32.3702C14.4294 31.76 13.9476 31.3585 12.9039 31.3585Z" fill="white"/>
<path d="M18.543 24.6948H23.5217C24.1814 24.642 24.845 24.7214 25.4737 24.9282C26.1023 25.1349 26.6834 25.465 27.1829 25.8991C27.5197 26.2437 27.7818 26.6539 27.9531 27.1042C28.1243 27.5545 28.2011 28.0353 28.1785 28.5165V28.5486C28.2063 29.2964 27.9979 30.0339 27.5828 30.6565C27.1677 31.2791 26.5671 31.7551 25.8662 32.017L28.5477 35.935H24.9668L22.7027 32.5308H21.6582V35.9349H18.543L18.543 24.6948ZM23.3931 30.0901C24.4369 30.0901 25.0632 29.5763 25.0632 28.7573V28.7253C25.0632 27.826 24.4049 27.3764 23.3771 27.3764H21.6582V30.0901L23.3931 30.0901Z" fill="white"/>
<path d="M32.5091 24.6146H35.5119L40.2972 35.935H36.9571L36.1542 33.9118H31.8025L30.9995 35.935H27.7397L32.5091 24.6146ZM35.2389 31.4871L33.9864 28.3078L32.7178 31.4871L35.2389 31.4871Z" fill="white"/>
<path d="M40.754 24.6625H43.8692L43.8691 35.9026H40.7539L40.754 24.6625Z" fill="white"/>
<path d="M45.0772 24.6625H47.9837L52.0269 30.6038L52.0269 24.6625H55.1101L55.11 35.9026H52.3962L48.1603 29.7366L48.1603 35.9026H45.0771L45.0772 24.6625Z" fill="white"/>
<path d="M55.6406 34.2327L57.3749 32.1613C58.3996 33.0151 59.6864 33.4913 61.0201 33.5102C61.8711 33.5102 62.3208 33.2212 62.3208 32.7394V32.7073C62.3208 32.2256 61.9515 31.9847 60.4099 31.6154C58.0172 31.0695 56.1705 30.395 56.1706 28.0988V28.0667C56.1706 25.9793 57.8246 24.4699 60.5224 24.4699C62.1919 24.406 63.8302 24.935 65.147 25.9633L63.5895 28.1631C62.6798 27.4778 61.5804 27.0909 60.4421 27.0552C59.6873 27.0552 59.318 27.3603 59.318 27.7777V27.8099C59.318 28.3237 59.7033 28.5485 61.277 28.9018C63.8463 29.4638 65.4521 30.2988 65.4521 32.4023V32.4344C65.4521 34.7306 63.6375 36.0954 60.9076 36.0954C58.9834 36.1384 57.11 35.4759 55.6406 34.2327Z" fill="white"/>
</svg>
